<?xml version="1.0" encoding="iso-8859-1"?>
<svg version="1.1" id="Layer_1" xmlns="http://www.w3.org/2000/svg" xmlns:xlink="http://www.w3.org/1999/xlink" x="0px" y="0px" width="42" height="42"
	 viewBox="0 0 100.353 100.353" xml:space="preserve">
<path style="fill:#231F20;" d="M99.574,97.399L52.061,49.884L99.345,2.6c0.569-0.568,0.569-1.491,0-2.06
	c-0.569-0.568-1.49-0.568-2.059,0L50.002,47.824L2.721,0.54c-0.569-0.569-1.49-0.568-2.059,0c-0.569,0.569-0.569,1.491,0,2.06
	l47.281,47.284L0.428,97.399c-0.569,0.569-0.569,1.491,0,2.06c0.284,0.284,0.657,0.427,1.03,0.427s0.745-0.143,1.03-0.427
	l47.515-47.515l47.513,47.515c0.284,0.284,0.657,0.427,1.03,0.427s0.745-0.143,1.03-0.427
	C100.143,98.89,100.143,97.968,99.574,97.399z"/>
</svg>
